<?xml version="1.0" ?><svg style="enable-background:new 0 0 100 100;" version="1.1" viewBox="0 0 100 100" xml:space="preserve" xmlns="http://www.w3.org/2000/svg" xmlns:xlink="http://www.w3.org/1999/xlink" fill="#ffffff"><style type="text/css">
	.st0{fill:#FFFFFF;}
	.st1{fill:none;stroke:#000000;stroke-width:3;stroke-linecap:round;stroke-linejoin:round;stroke-miterlimit:10;}
	.st2{fill-rule:evenodd;clip-rule:evenodd;}
	
		.st3{fill-rule:evenodd;clip-rule:evenodd;fill:none;stroke:#040404;stroke-width:3;stroke-linecap:round;stroke-linejoin:round;stroke-miterlimit:10;}
	
		.st4{fill-rule:evenodd;clip-rule:evenodd;fill:none;stroke:#000000;stroke-width:3;stroke-linecap:round;stroke-linejoin:round;stroke-miterlimit:10;}
	.st5{fill-rule:evenodd;clip-rule:evenodd;fill:#040404;}
	.st6{fill:none;}
	.st7{fill:none;stroke:#000000;stroke-width:3;stroke-miterlimit:10;}
	.st8{fill:none;stroke:#FFFFFF;stroke-miterlimit:10;}
	.st9{fill:#040404;}
</style><g id="Layer_1"/><g id="Layer_2"><g><path d="M91.301,71.096c-3.372-2.702-6.919-5.229-10.438-7.654c-7.076-5.003-13.269-4.481-17.998,2.621    c-1.879,2.844-4.413,3.416-7.972,1.801c-1.709-0.742-2.847,1.784-1.17,2.577c4.854,2.202,8.831,1.228,11.503-2.818    c3.886-5.806,8.162-5.912,14.01-1.865c3.497,2.409,7.024,4.922,10.345,7.587c3.889,2.972,6.189,5.026,4.567,9.604    c-2.458,6.64-10.776,13.482-17.316,12.509C43.658,83.484,19.739,58.986,6.858,27.668C2.786,17.874,7.065,9.471,17.148,6.175    c1.726-0.581,3.326-0.583,4.888-0.01c4.058,1.494,15.609,17.262,15.847,21.631c0.163,2.981-1.912,4.646-4.238,6.224    c-4.819,3.274-5.883,7.74-3.251,13.654c3.577,8.038,9.269,14.545,16.917,19.338c1.598,0.958,3.059-1.382,1.503-2.397    c-7.163-4.49-12.491-10.577-15.836-18.091c-5.147-11.343,8.104-9.001,7.731-18.882C40.406,22.097,28.168,5.408,23.012,3.51    C15.962,0.913,6.264,7.932,3.966,13.587c-2.043,4.457-1.949,9.695,0.272,15.146C17.03,60.14,39.892,83.115,72.188,97.021    c9.723,4.937,21.443-4.592,24.629-13.129C99.209,77.14,94.824,73.789,91.301,71.096z"/><path d="M52.454,9.394c22.929,2.779,34.458,14.716,36.462,37.817c0.029,1.825,0.085,5.224,3.834,5.297    c3.419,0.147,4.225-2.893,3.915-5.604c0.011-1.122-0.006-2.396-1.426-2.469c-0.78-0.01-1.422,0.616-1.432,1.397    c-0.035,1.018,0.277,3.021-0.207,3.675c-0.114,0.118-0.414,0.189-0.795,0.172c-0.742-0.014-1.021-0.019-1.061-2.513    C89.713,22.405,77.25,9.465,52.66,6.572c-2.167-0.159-2.156-0.355-2.132-0.784c0.031-0.534,0.148-0.917,0.332-1.078    c0.765-0.504,2.623-0.013,3.642-0.168c19.677,0.724,37.222,17.469,39.142,37.38c0.195,1.838,2.968,1.59,2.816-0.271    C94.365,19.888,74.743,1.636,53.132,1.7c-2.589-0.368-5.349,0.578-5.429,3.927C47.51,9.034,50.85,9.277,52.454,9.394z"/><path d="M57.463,12.892c-1.945-0.323-5.559-0.917-6.232,3.076c-0.638,3.286,2.058,4.6,4.721,4.783    c13.841,2.577,19.432,7.66,21.536,21.442c0.148,3.157,0.514,6.499,4.757,5.882c3.879-0.803,2.86-4.029,3.068-6.115    C85.466,27.429,72.739,14.324,57.463,12.892z M81.82,45.277c-0.578,0.087-0.899,0.026-1.007-0.061    c-2.214-16.669-7.034-24.074-24.479-27.268c-0.837-0.114-1.984-0.272-2.255-0.641c-0.106-0.144-0.127-0.461-0.058-0.869    c0.106-0.633,0.222-0.959,1.143-0.959c15.022,0.533,28.3,13.36,27.3,27.84C82.527,45.169,82.349,45.197,81.82,45.277z"/><path d="M59.534,24.074c-1.253,0.031-3.862,0.097-4.766,2.725c-1.129,2.974,1.094,4.804,3.755,5.055    c5.121,0.822,7.751,3.653,8.278,8.909c0.197,2.307,1.942,4.236,4.252,3.936c3.659-0.436,3.525-4.146,3.481-5.291    C74.9,32.564,66.474,23.675,59.534,24.074z M70.72,41.891c-0.743,0.055-0.994-0.66-1.104-1.408    c-0.656-6.55-4.238-10.394-10.644-11.422c-1.746-0.367-1.824-0.348-1.529-1.339c0.188-0.543,0.53-0.777,2.162-0.818    c5.376-0.338,12.461,7.218,12.102,12.534C71.79,41.763,71.246,41.829,70.72,41.891z"/></g></g></svg>