<svg width="60" height="54" viewBox="0 0 60 54" fill="none" xmlns="http://www.w3.org/2000/svg">
<path d="M30 0C33.1826 0 36.2348 1.26428 38.4853 3.51472C40.7357 5.76515 42 8.8174 42 12C42 14.19 41.43 16.23 40.38 18H48C50.85 18 53.25 20.01 53.85 22.68C59.88 46.71 60 47.34 60 48C60 49.5913 59.3679 51.1174 58.2426 52.2426C57.1174 53.3679 55.5913 54 54 54H6C4.4087 54 2.88258 53.3679 1.75736 52.2426C0.632141 51.1174 0 49.5913 0 48C0 47.34 0.120001 46.71 6.15 22.68C6.75 20.01 9.15 18 12 18H19.62C18.57 16.23 18 14.19 18 12C18 8.8174 19.2643 5.76515 21.5147 3.51472C23.7652 1.26428 26.8174 0 30 0M30 6C28.4087 6 26.8826 6.63214 25.7574 7.75736C24.6321 8.88258 24 10.4087 24 12C24 13.5913 24.6321 15.1174 25.7574 16.2426C26.8826 17.3679 28.4087 18 30 18C31.5913 18 33.1174 17.3679 34.2426 16.2426C35.3679 15.1174 36 13.5913 36 12C36 10.4087 35.3679 8.88258 34.2426 7.75736C33.1174 6.63214 31.5913 6 30 6M12 24V48H18V40.5L21 43.5V48H27V42L21 36L27 30V24H21V28.5L18 31.5V24H12ZM39 24C35.67 24 33 26.67 33 30V42C33 45.33 35.67 48 39 48H48V33H42V42H39V30H48V24H39Z" fill="#76B729"/>
</svg>
